<svg width="65" height="65" viewBox="0 0 65 65" fill="none" xmlns="http://www.w3.org/2000/svg">
<g clip-path="url(#clip0_7_69)">
<path d="M63.131 51.506C64.3268 52.7045 64.9984 54.3285 64.9984 56.0215C64.9984 57.7146 64.3268 59.3385 63.131 60.537L60.54 63.13C59.9481 63.7249 59.2442 64.1965 58.4688 64.5175C57.6935 64.8385 56.8621 65.0025 56.023 65C55.184 65.0024 54.3528 64.8384 53.5776 64.5174C52.8025 64.1964 52.0987 63.7249 51.507 63.13L30.988 42.613L28.126 45.475C28.2027 46.397 28.0769 47.3246 27.7573 48.1928C27.4378 49.061 26.9322 49.8488 26.276 50.501L23.55 53.227C22.9582 53.8218 22.2544 54.2934 21.4793 54.6143C20.7041 54.9353 19.873 55.0994 19.034 55.097C18.1951 55.0993 17.3642 54.9352 16.5892 54.6142C15.8142 54.2932 15.1105 53.8217 14.519 53.227L1.86497 40.575C0.669189 39.3767 -0.00238037 37.7529 -0.00238037 36.06C-0.00238037 34.3671 0.669189 32.7434 1.86497 31.545L4.59097 28.819C5.24319 28.1629 6.03101 27.6573 6.89921 27.3377C7.76742 27.0182 8.695 26.8923 9.61697 26.969L26.97 9.61902C26.8952 8.69769 27.0218 7.77112 27.3409 6.90358C27.66 6.03605 28.164 5.24832 28.818 4.59502L31.543 1.87002C32.1346 1.27539 32.8383 0.803958 33.6133 0.48298C34.3882 0.162003 35.2192 -0.00214761 36.058 2.1214e-05C37.764 2.1214e-05 39.368 0.664021 40.574 1.87002L53.227 14.522C54.4225 15.7205 55.0939 17.3442 55.0939 19.037C55.0939 20.7298 54.4225 22.3536 53.227 23.552L50.502 26.278C49.8496 26.9342 49.0616 27.4398 48.1932 27.7594C47.3249 28.079 46.3971 28.2048 45.475 28.128L42.613 30.99L63.131 51.506ZM31.164 35.784L35.783 31.165L39.243 27.705L44.398 22.551L44.798 22.951C45.126 23.279 45.556 23.443 45.986 23.443C46.416 23.443 46.846 23.279 47.175 22.951L49.9 20.226C50.056 20.07 50.1798 19.8848 50.2642 19.681C50.3486 19.4771 50.3921 19.2587 50.3921 19.038C50.3921 18.8174 50.3486 18.5989 50.2642 18.3951C50.1798 18.1912 50.056 18.006 49.9 17.85L37.246 5.19702C37.0901 5.04084 36.9049 4.91699 36.701 4.83256C36.4972 4.74813 36.2786 4.70479 36.058 4.70502C35.628 4.70502 35.198 4.86902 34.87 5.19702L32.144 7.92202C31.9878 8.07804 31.8639 8.26332 31.7794 8.46725C31.6949 8.67118 31.6514 8.88977 31.6514 9.11052C31.6514 9.33128 31.6949 9.54987 31.7794 9.7538C31.8639 9.95773 31.9878 10.143 32.144 10.299L32.544 10.699L10.694 32.546L10.294 32.146C10.1381 31.9898 9.9529 31.866 9.74903 31.7816C9.54516 31.6971 9.32663 31.6538 9.10597 31.654C8.67597 31.654 8.24597 31.818 7.91797 32.146L5.19297 34.87C5.03695 35.026 4.91319 35.2112 4.82875 35.4151C4.74431 35.6189 4.70085 35.8374 4.70085 36.058C4.70085 36.2787 4.74431 36.4971 4.82875 36.701C4.91319 36.9048 5.03695 37.09 5.19297 37.246L17.846 49.9C18.174 50.228 18.604 50.392 19.034 50.392C19.464 50.392 19.894 50.228 20.223 49.9L22.948 47.175C23.1041 47.019 23.228 46.8337 23.3126 46.6298C23.3971 46.4259 23.4406 46.2073 23.4406 45.9865C23.4406 45.7658 23.3971 45.5472 23.3126 45.3433C23.228 45.1393 23.1041 44.954 22.948 44.798L22.548 44.398L27.703 39.244L31.164 35.784ZM59.804 54.834L39.285 34.317L34.315 39.287L54.835 59.803C55.162 60.131 55.593 60.295 56.023 60.295C56.453 60.295 56.883 60.131 57.211 59.803L59.804 57.21C59.96 57.054 60.0838 56.8688 60.1682 56.665C60.2526 56.4611 60.2961 56.2427 60.2961 56.022C60.2961 55.8014 60.2526 55.5829 60.1682 55.3791C60.0838 55.1752 59.96 54.99 59.804 54.834Z" fill="white"/>
</g>
<defs>
<clipPath id="clip0_7_69">
<rect width="65" height="65" fill="white"/>
</clipPath>
</defs>
</svg>
